<svg width="currentWidth" height="currentHeight" viewBox="0 0 70 70" fill="none" xmlns="http://www.w3.org/2000/svg">
<path fill-rule="evenodd" clip-rule="evenodd" d="M48.7578 35.8534V28.6568L54.9998 25.064V32.2606L48.7578 35.8534ZM36.2876 43.0473L36.2876 35.8507L42.5295 32.2579L42.5295 39.4481L48.7646 35.8592V43.0463L54.9998 39.4574V46.654L48.7578 50.2468V43.0597L42.5227 46.6486L42.5227 39.4585L36.2876 43.0473ZM36.2876 57.4433L36.2876 50.2467L42.5295 46.6539L42.5295 53.8505L36.2876 57.4433Z" fill="currentColor"/>
<path fill-rule="evenodd" clip-rule="evenodd" d="M34.9967 19.2026L41.2206 15.6093L34.9881 12L28.7557 15.5983L34.9813 19.2036L28.7574 22.797L34.9818 26.4016L28.7642 29.9914L34.9966 33.6006L41.2291 30.0023L35.0046 26.3977L41.2222 22.8079L34.9967 19.2026ZM28.7559 22.8057L22.5234 26.404L16.291 22.7948L22.5235 19.1965L28.7559 22.8057ZM53.688 22.8107L47.4556 26.409L41.2232 22.7998L47.4556 19.2014L53.688 22.8107Z" fill="currentColor"/>
<path fill-rule="evenodd" clip-rule="evenodd" d="M15 25.064V32.2606L21.2419 35.8534L21.2419 28.6568L15 25.064ZM15 39.46V46.6566L21.2419 50.2494L21.2419 43.0596L27.477 46.6484V39.4607L33.7127 43.0499V35.8533L27.4708 32.2605V39.4482L21.2351 35.859L21.2351 43.0489L15 39.46ZM27.4708 46.6537V53.8503L33.7127 57.4431V50.2465L27.4708 46.6537Z" fill="currentColor"/>
</svg>
