<svg width="currentWidth" height="currentHeight" viewBox="0 0 640 480" fill="none" xmlns="http://www.w3.org/2000/svg">
<g clip-path="url(#clip0_216_10126)">
<path fill-rule="evenodd" clip-rule="evenodd" d="M0 0H640V480H0V0Z" fill="#229E45"/>
<path fill-rule="evenodd" clip-rule="evenodd" d="M321.4 436L622.9 240.3L319.6 44L17.1001 240.7L321.4 436Z" fill="#F8E509"/>
<path fill-rule="evenodd" clip-rule="evenodd" d="M452.8 240C452.8 310.3 395.7 367.3 325.2 367.3C300.007 367.26 275.391 359.752 254.465 345.725C233.538 331.698 217.24 311.781 207.631 288.492C198.022 265.204 195.533 239.589 200.48 214.886C205.426 190.184 217.586 167.502 235.421 149.709C253.256 131.915 275.966 119.81 300.68 114.921C325.395 110.033 351.003 112.582 374.269 122.246C397.535 131.909 417.414 148.254 431.392 169.214C445.37 190.173 452.82 214.807 452.8 240Z" fill="#2B49A3"/>
<path fill-rule="evenodd" clip-rule="evenodd" d="M283.3 316.3L279.3 314L275.3 316L276.2 311.5L273 308.1L277.5 307.6L279.7 303.6L281.6 307.8L286 308.6L282.7 311.6M368.7 337.9L364.8 335.6L360.8 337.6L361.6 333.1L358.5 329.8L363 329.3L365.1 325.2L367.1 329.4L371.5 330.2L368.1 333.3M331.9 303.3L328.5 301.3L325 303.1L325.8 299.2L323 296.3L327 295.9L328.8 292.3L330.4 296L334.3 296.7L331.3 299.4M418.3 290.9L414.9 288.9L411.4 290.7L412.2 286.8L409.5 284L413.4 283.6L415.2 280.1L416.8 283.7L420.6 284.4L417.7 287M330.4 265L326.4 262.8L322.4 264.8L323.2 260.2L320.1 256.9L324.6 256.4L326.7 252.3L328.7 256.5L333.1 257.3L329.7 260.5M225.1 225.5L221.1 223.3L217.1 225.3L218.1 220.7L214.8 217.4L219.4 216.9L221.4 212.8L223.4 217L227.8 217.8L224.5 220.9M237.8 278.1L233.8 275.8L229.8 277.8L230.7 273.3L227.5 270L232 269.4L234.1 265.4L236.1 269.6L240.5 270.4L237.2 273.5M369.2 206.2L365.6 204.2L362 206L362.8 202L360 199L364 198.5L365.9 194.9L367.6 198.7L371.6 199.4L368.6 202.1M361.9 240.4L359.2 238.8L356.3 240.2L356.9 237L354.7 234.7L357.9 234.3L359.4 231.5L360.7 234.5L363.7 235L361.5 237.2M219.3 287.6L216.6 286.1L213.9 287.4L214.5 284.4L212.4 282.2L215.4 281.8L216.8 279.1L218.1 281.9L221.1 282.5L218.8 284.5M419 299.8L416.8 298.7L414.6 299.7L415.1 297.4L413.4 295.8L415.8 295.5L417 293.5L418 295.5L420.5 296L418.6 297.5" fill="#FFFFEF"/>
<path fill-rule="evenodd" clip-rule="evenodd" d="M219.3 287.6L216.6 286.1L213.9 287.4L214.5 284.4L212.4 282.2L215.4 281.8L216.8 279.1L218.1 281.9L221.1 282.5L218.8 284.5" fill="#FFFFEF"/>
<path fill-rule="evenodd" clip-rule="evenodd" d="M219.3 287.6L216.6 286.1L213.9 287.4L214.5 284.4L212.4 282.2L215.4 281.8L216.8 279.1L218.1 281.9L221.1 282.5L218.8 284.5M261.1 287.5L258.5 286.1L255.8 287.4L256.4 284.4L254.3 282.2L257.3 281.8L258.7 279.1L260 281.9L263 282.4L260.7 284.5M255.9 301.5L253.3 300L250.6 301.4L251.2 298.4L249.1 296.1L252.1 295.7L253.5 293L254.8 295.8L257.8 296.4L255.5 298.4M342.9 276.2L340.3 274.6L337.5 276L338.1 273L336.1 270.7L339.1 270.4L340.5 267.7L341.7 270.5L344.7 271L342.5 273.1M317.4 276.1L314.7 274.6L312 276L312.6 273L310.6 270.7L313.6 270.4L315 267.6L316.2 270.5L319.2 271L317 273.1M248.2 267.3L246.5 266.3L244.8 267.1L245.2 265.2L243.9 263.8L245.8 263.6L246.6 261.9L247.4 263.7L249.3 264L247.9 265.3M415.7 310.7L413.1 309.2L410.4 310.6L411 307.6L408.9 305.3L411.9 304.9L413.3 302.2L414.6 305L417.6 305.6L415.3 307.6M394.5 313.6L392.3 312.2L390 313.4L390.5 310.8L388.8 309L391.3 308.7L392.5 306.4L393.5 308.8L396 309.2L394.1 311M404.5 313.3L402.5 312.1L400.4 313.1L400.8 310.8L399.2 309.1L401.5 308.8L402.6 306.8L403.6 308.8L405.9 309.3L404.2 310.9M433.3 288.1L431.3 287.1L429.3 288.1L429.8 285.8L428.2 284.1L430.5 283.8L431.5 281.8L432.5 283.9L434.6 284.3L433 285.9M394.2 327.7L391.7 326.3L389 327.5L389.6 324.7L387.6 322.7L390.6 322.4L391.9 319.9L393.1 322.5L396.1 323L393.8 324.9M394.4 339.1L392 337.7L389.6 339L390.2 336.2L388.3 334.2L391 333.8L392.2 331.3L393.3 333.9L396 334.4L394 336.4M375 313.3L373.1 312.1L371.1 313.1L371.5 310.9L370 309.2L372.2 309L373.2 307L374.2 309L376.4 309.4L374.8 311M357 313.3L355 312.1L353 313.1L353.5 310.9L351.9 309.2L354.2 309L355.2 307L356.2 309L358.3 309.4L356.7 311M326.3 286.4L324.3 285.3L322.3 286.3L322.8 284L321.2 282.4L323.4 282.1L324.4 280.1L325.4 282.1L327.6 282.6L326 284.1M329.7 341.1L328.1 340.2L326.3 341.1L326.7 339.1L325.4 337.7L327.3 337.5L328.2 335.8L329 337.6L330.9 337.9L329.5 339.2M283.3 252.6L279.3 250.3L275.3 252.3L276.2 247.8L273 244.5L277.5 243.9L279.7 239.9L281.6 244.1L286 244.9L282.7 248" fill="#FFFFEF"/>
<path fill-rule="evenodd" clip-rule="evenodd" d="M444.4 285.8C446.877 279.372 448.817 272.749 450.2 266C382.4 206.5 306.9 176 211.5 182.3C208.04 188.995 205.195 195.991 203 203.2C316 192.4 399 242.4 444.4 285.8Z" fill="white"/>
<path d="M414 252.4L416.3 253.7C415.957 254.379 415.851 255.154 416 255.9C416.234 256.624 416.735 257.231 417.4 257.6C418.1 258.1 418.8 258.4 419.4 258.3C420 258.3 420.4 258 420.7 257.6C420.875 257.335 420.946 257.014 420.9 256.7C420.818 256.331 420.647 255.987 420.4 255.7C420.2 255.4 419.7 254.7 418.9 253.9C418.078 253.051 417.462 252.025 417.1 250.9C416.851 250.049 416.915 249.136 417.282 248.328C417.65 247.521 418.295 246.872 419.1 246.5C419.828 246.196 420.631 246.127 421.4 246.3C422.34 246.517 423.225 246.925 424 247.5C425.4 248.5 426.3 249.5 426.6 250.7C426.738 251.261 426.756 251.845 426.653 252.414C426.55 252.983 426.327 253.523 426 254L423.6 252.5C423.9 251.9 424 251.3 423.8 250.8C423.7 250.3 423.3 249.8 422.6 249.4C422.087 248.987 421.458 248.742 420.8 248.7C420.619 248.694 420.439 248.737 420.281 248.825C420.122 248.913 419.991 249.043 419.9 249.2C419.7 249.5 419.7 249.8 419.8 250.2C419.9 250.6 420.4 251.4 421.4 252.4C422.4 253.4 423 254.3 423.4 254.9C423.757 255.555 423.919 256.299 423.866 257.044C423.813 257.788 423.547 258.502 423.1 259.1C422.632 259.78 421.97 260.303 421.2 260.6C420.45 260.945 419.612 261.05 418.8 260.9C417.9 260.7 417 260.3 416 259.6C414.5 258.6 413.6 257.5 413.3 256.3C412.974 254.939 413.19 253.505 413.9 252.3L414 252.4ZM402.4 244.8L404.9 246.1C404.59 246.791 404.52 247.565 404.7 248.3C404.956 248.986 405.454 249.555 406.1 249.9C406.9 250.4 407.5 250.6 408.1 250.5C408.7 250.5 409.1 250.2 409.4 249.7C409.552 249.462 409.622 249.181 409.6 248.9C409.6 248.6 409.4 248.2 409.1 247.9C408.588 247.282 408.054 246.681 407.5 246.1C406.4 245 405.7 244.1 405.5 243.3C405.337 242.785 405.288 242.241 405.357 241.706C405.426 241.17 405.611 240.656 405.9 240.2C406.28 239.583 406.838 239.095 407.5 238.8C408.187 238.483 408.953 238.379 409.7 238.5C410.625 238.656 411.509 238.996 412.3 239.5C413.8 240.5 414.7 241.5 415 242.6C415.182 243.162 415.241 243.757 415.172 244.344C415.103 244.931 414.908 245.496 414.6 246L412.1 244.6C412.4 243.9 412.5 243.4 412.3 242.9C412.1 242.4 411.7 241.9 411 241.5C410.447 241.103 409.781 240.893 409.1 240.9C408.936 240.911 408.777 240.963 408.638 241.05C408.498 241.137 408.382 241.257 408.3 241.4C408.1 241.7 408.1 242 408.2 242.4C408.3 242.8 408.9 243.6 409.9 244.6C410.9 245.6 411.6 246.4 411.9 247C412.301 247.627 412.514 248.356 412.514 249.1C412.514 249.844 412.301 250.573 411.9 251.2C411.469 251.898 410.844 252.454 410.1 252.8C409.35 253.145 408.512 253.25 407.7 253.1C406.671 252.926 405.686 252.552 404.8 252C403.507 251.311 402.512 250.173 402 248.8C401.614 247.465 401.757 246.032 402.4 244.8ZM388.2 241L395.5 229L404.3 234.5L403.1 236.5L396.7 232.5L395.1 235.2L401.1 238.9L399.8 240.9L393.8 237.2L391.8 240.5L398.5 244.5L397.3 246.5L388.2 241ZM367.5 224L368.6 222L374 224.7L371.5 229.7C370.7 229.9 369.7 230 368.5 229.9C367.348 229.773 366.229 229.434 365.2 228.9C363.99 228.31 362.956 227.414 362.2 226.3C361.512 225.265 361.163 224.042 361.2 222.8C361.251 221.507 361.593 220.242 362.2 219.1C362.801 217.897 363.695 216.866 364.8 216.1C365.857 215.369 367.115 214.985 368.4 215C369.4 215 370.4 215.3 371.6 216C373.2 216.7 374.2 217.7 374.7 218.8C375.22 219.892 375.327 221.135 375 222.3L372.3 221.5C372.465 220.83 372.395 220.124 372.1 219.5C371.8 218.9 371.3 218.5 370.5 218.1C370.034 217.834 369.517 217.67 368.982 217.618C368.448 217.566 367.909 217.628 367.4 217.8C366.4 218.1 365.5 219 364.8 220.4C364.1 221.8 363.8 223.1 364.1 224.2C364.238 224.722 364.489 225.207 364.834 225.621C365.18 226.036 365.612 226.37 366.1 226.6C366.6 226.9 367.2 227.1 367.8 227.1C368.397 227.191 369.004 227.191 369.6 227.1L370.4 225.5L367.5 224ZM277.3 201.7L279.3 187.7L283.5 188.4L284.6 198.2L288.5 189.2L292.7 189.8L290.7 203.6L288 203.2L289.7 192.3L285.3 202.8L282.6 202.4L281.5 191.1L279.9 202.1L277.3 201.7ZM263.2 200L264.5 186L274.8 187L274.6 189.4L267.1 188.7L266.8 191.7L273.8 192.4L273.5 194.8L266.5 194.1L266.2 197.9L274 198.6L273.8 201L263.2 200Z" fill="#309E3A"/>
<path d="M216.5 191.3C216.5 189.8 216.8 188.7 217.2 187.7C217.55 186.989 218.024 186.346 218.6 185.8C219.113 185.283 219.725 184.875 220.4 184.6C221.4 184.3 222.4 184.1 223.4 184.1C225.5 184.1 227.1 184.9 228.4 186.1C229.019 186.865 229.479 187.745 229.754 188.689C230.028 189.633 230.112 190.623 230 191.6C230 193.8 229.3 195.6 228 196.9C227.332 197.518 226.542 197.988 225.68 198.281C224.819 198.574 223.906 198.682 223 198.6C222.106 198.609 221.22 198.437 220.395 198.093C219.569 197.749 218.823 197.241 218.2 196.6C216.956 195.127 216.344 193.222 216.5 191.3Z" fill="#309E3A"/>
<path d="M219.4 191.3C219.4 192.8 219.7 194 220.4 194.9C221.1 195.7 222 196.2 223.2 196.2C223.719 196.236 224.24 196.156 224.724 195.966C225.208 195.776 225.644 195.48 226 195.1C226.7 194.3 227 193.1 227.1 191.4C227.1 189.8 226.9 188.6 226.1 187.8C225.774 187.397 225.363 187.071 224.896 186.846C224.429 186.621 223.918 186.503 223.4 186.5C222.874 186.483 222.351 186.582 221.867 186.789C221.383 186.996 220.951 187.307 220.6 187.7C219.8 188.5 219.5 189.7 219.4 191.3Z" fill="#F7FFFF"/>
<path d="M233 198.5L233.2 184.5H239.2C240.7 184.5 241.7 184.7 242.4 185C243.1 185.2 243.6 185.7 244 186.3C244.4 186.9 244.6 187.7 244.6 188.6C244.608 189.562 244.25 190.491 243.6 191.2C242.861 191.892 241.909 192.315 240.9 192.4L242.4 193.6C242.8 194 243.3 194.8 243.9 195.9L245.6 198.7H242.2L240.2 195.5L238.8 193.5C238.558 193.225 238.247 193.018 237.9 192.9C237.445 192.767 236.974 192.7 236.5 192.7H235.9V198.5H233Z" fill="#309E3A"/>
<path d="M236 190.5H238C239.4 190.5 240.3 190.5 240.6 190.3C240.9 190.3 241.2 190 241.4 189.8C241.6 189.6 241.7 189.1 241.7 188.8C241.7 188.2 241.6 187.8 241.3 187.6C241.1 187.3 240.7 187.1 240.3 187H238.3L236 186.9V190.5Z" fill="white"/>
<path d="M249 185.2L254.2 185.5C255.3 185.5 256.2 185.6 256.8 185.8C257.578 186.083 258.268 186.566 258.8 187.2C259.376 187.899 259.786 188.72 260 189.6C260.3 190.5 260.4 191.6 260.3 192.9C260.299 193.921 260.13 194.934 259.8 195.9C259.4 196.9 258.8 197.7 258.1 198.3C257.517 198.78 256.833 199.122 256.1 199.3C255.5 199.5 254.6 199.5 253.6 199.5L248.3 199.2L249 185.2Z" fill="#309E3A"/>
<path d="M251.7 187.7L251.2 197H255C255.5 197 255.9 196.8 256.2 196.5C256.5 196.2 256.8 195.8 257 195.2C257.2 194.6 257.4 193.7 257.4 192.6L257.3 190.1C257.157 189.573 256.882 189.091 256.5 188.7C256.168 188.366 255.754 188.125 255.3 188C254.544 187.832 253.774 187.731 253 187.7H251.7Z" fill="white"/>
<path d="M317.6 210.2L320.9 196.6L325.3 197.6L328.5 198.6C329.2 199 329.8 199.6 330.1 200.5C330.5 201.3 330.5 202.2 330.3 203.3C330.1 204.1 329.8 204.8 329.3 205.3C328.933 205.739 328.474 206.092 327.956 206.334C327.438 206.576 326.872 206.701 326.3 206.7C325.6 206.7 324.6 206.5 323.3 206.2L321.6 205.7L320.4 210.9L317.6 210.2Z" fill="#309E3A"/>
<path d="M323 199.6L322.2 203.4L323.7 203.8C324.7 204 325.5 204.2 325.9 204.1C326.289 204.046 326.652 203.873 326.938 203.604C327.225 203.336 327.421 202.985 327.5 202.6C327.5 202.1 327.5 201.7 327.3 201.3C327.081 200.894 326.727 200.576 326.3 200.4L324.4 199.9L323.1 199.6H323Z" fill="white"/>
<path d="M330.6 214.1L335.3 200.9L340.8 202.9C342.3 203.4 343.2 203.9 343.8 204.3C344.3 204.8 344.7 205.3 344.8 206.1C344.9 206.9 345 207.6 344.8 208.4C344.4 209.4 343.8 210.1 343 210.6C342.2 211 341.2 211.1 340 210.9C340.4 211.4 340.8 211.9 341 212.5L341.8 215.2L342.4 218.3L339.3 217.2L338.3 213.6C338.118 212.786 337.885 211.984 337.6 211.2C337.467 210.889 337.262 210.614 337 210.4C336.8 210.1 336.4 209.9 335.7 209.7L335.2 209.5L333.2 215.1L330.6 214.1Z" fill="#309E3A"/>
<path d="M336 207.4L337.9 208.1C339.2 208.6 340 208.8 340.4 208.8C340.7 208.8 341 208.8 341.3 208.5C341.6 208.3 341.8 208 341.9 207.6C342.1 207.2 342.1 206.8 341.9 206.4C341.752 206.013 341.467 205.692 341.1 205.5L339.1 204.8L337.1 204.1L335.9 207.4H336Z" fill="white"/>
<path d="M347 213.6C347.344 212.429 347.922 211.341 348.7 210.4C349.206 209.797 349.815 209.289 350.5 208.9C351.12 208.55 351.797 208.313 352.5 208.2C353.5 208.2 354.5 208.2 355.6 208.6C356.494 208.821 357.331 209.23 358.055 209.799C358.779 210.368 359.374 211.084 359.8 211.9C360.6 213.5 360.6 215.4 360 217.6C359.505 219.49 358.283 221.108 356.6 222.1C355.1 223 353.3 223.1 351.4 222.5C350.509 222.273 349.675 221.862 348.951 221.294C348.228 220.726 347.631 220.013 347.2 219.2C346.799 218.326 346.576 217.381 346.541 216.42C346.507 215.459 346.663 214.501 347 213.6Z" fill="#309E3A"/>
<path d="M349.8 214.4C349.4 215.9 349.3 217.2 349.8 218.2C350.3 219.2 351 219.8 352.1 220.2C353.1 220.5 354.1 220.4 355.1 219.8C356.1 219.3 356.7 218.2 357.2 216.6C357.7 215.1 357.7 213.9 357.2 212.9C357.003 212.426 356.703 212.001 356.323 211.655C355.943 211.309 355.491 211.052 355 210.9C354.508 210.73 353.985 210.669 353.467 210.721C352.949 210.773 352.449 210.936 352 211.2C351 211.8 350.3 212.8 349.8 214.4Z" fill="white"/>
<path d="M374.3 233.1L380.7 220.7L386 223.4C386.999 223.88 387.911 224.522 388.7 225.3C389.2 225.8 389.5 226.4 389.5 227.2C389.5 228 389.5 228.7 389.1 229.4C388.715 230.299 387.999 231.016 387.1 231.4C386.1 231.6 385.1 231.6 384 231.2C384.4 231.8 384.6 232.4 384.8 232.9C385 233.5 385.1 234.4 385.2 235.7L385.4 238.9L382.4 237.4L382 233.7C381.952 232.861 381.852 232.026 381.7 231.2C381.632 230.826 381.458 230.479 381.2 230.2L380 229.5L379.5 229.2L376.8 234.4L374.3 233.1Z" fill="#309E3A"/>
<path d="M380.5 227.2L382.4 228.2C383.6 228.8 384.4 229.2 384.7 229.2C385 229.2 385.4 229.2 385.7 229C386 228.9 386.2 228.6 386.4 228.2C386.6 227.8 386.7 227.4 386.6 227C386.477 226.602 386.232 226.252 385.9 226C385.315 225.641 384.714 225.307 384.1 225L382.1 224L380.5 227.2Z" fill="white"/>
<path d="M426.1 258.7C426.747 257.672 427.598 256.787 428.6 256.1C429.273 255.669 430.018 255.364 430.8 255.2C431.526 255.052 432.274 255.052 433 255.2C434 255.4 434.9 255.8 435.8 256.4C436.578 256.885 437.247 257.526 437.763 258.284C438.28 259.042 438.633 259.898 438.8 260.8C439.1 262.5 438.6 264.4 437.4 266.3C436.396 267.953 434.778 269.139 432.9 269.6C432.004 269.793 431.078 269.795 430.182 269.606C429.286 269.416 428.44 269.039 427.7 268.5C426.922 268.015 426.253 267.374 425.736 266.616C425.22 265.858 424.867 265.002 424.7 264.1C424.4 262.3 424.9 260.5 426.1 258.7Z" fill="#309E3A"/>
<path d="M428.6 260.3C427.6 261.6 427.3 262.8 427.5 263.9C427.574 264.407 427.754 264.892 428.03 265.323C428.306 265.754 428.671 266.121 429.1 266.4C430.1 267.1 431.1 267.3 432.1 267C433.1 266.7 434.1 266 435 264.6C435.9 263.2 436.3 262 436.1 261C436 260 435.4 259.1 434.5 258.4C433.6 257.7 432.5 257.6 431.5 257.9C430.5 258.1 429.5 258.9 428.5 260.3H428.6Z" fill="white"/>
<path d="M301.8 204.5L304.1 194.7L311.3 196.4L311 198L305.7 196.8L305.2 199L310.1 200.1L309.7 201.8L304.8 200.6L304.2 203.3L309.7 204.6L309.3 206.2L301.8 204.5Z" fill="#309E3A"/>
</g>
<defs>
<clipPath id="clip0_216_10126">
<rect width="640" height="480" fill="white"/>
</clipPath>
</defs>
</svg>
