<svg width="currentWidth" height="currentHeight"  viewBox="0 0 30 30" fill="none" xmlns="http://www.w3.org/2000/svg">
<path fill-rule="evenodd" clip-rule="evenodd" d="M14.7566 0C6.71299 0 0.19165 6.88623 0.19165 15.3806C0.19165 22.1758 4.36417 27.9404 10.1527 29.9729C10.8818 30.1153 11.1469 29.6417 11.1469 29.2327C11.1469 28.8684 11.1342 27.9018 11.1279 26.617C7.07601 27.5473 6.22111 24.5549 6.22111 24.5549C5.55856 22.7783 4.60357 22.3059 4.60357 22.3059C3.28108 21.3523 4.70404 21.3709 4.70404 21.3709C6.16584 21.4801 6.93521 22.9554 6.93521 22.9554C8.23417 25.3058 10.3447 24.6255 11.1742 24.2343C11.306 23.2385 11.6833 22.5622 12.0989 22.1769C8.86498 21.7889 5.46482 20.4694 5.46482 14.5761C5.46482 12.8966 6.03213 11.5234 6.96359 10.448C6.81457 10.0608 6.31374 8.49717 7.10663 6.37869C7.10663 6.37869 8.32941 5.96541 11.1126 7.9565C12.2737 7.61381 13.52 7.44266 14.7589 7.43753C15.9958 7.44306 17.2425 7.61381 18.4052 7.9565C21.1865 5.96541 22.4074 6.37869 22.4074 6.37869C23.2021 8.49717 22.7017 10.0608 22.5523 10.448C23.486 11.5234 24.0492 12.8966 24.0492 14.5761C24.0492 20.4832 20.6442 21.7846 17.3994 22.1639C17.9215 22.6391 18.3876 23.5797 18.3876 25.0147C18.3876 27.0697 18.37 28.728 18.37 29.2323C18.37 29.6444 18.6319 30.1236 19.3713 29.971C25.1536 27.9341 29.3231 22.1738 29.3231 15.3806C29.3231 6.88623 22.8018 0 14.7566 0Z" fill="currentColor"/>
</svg>
