<svg width="currentWidth" height="currentHeight" viewBox="0 0 275 275" fill="none" xmlns="http://www.w3.org/2000/svg">
<path fill-rule="evenodd" clip-rule="evenodd" d="M35.2225 0H239.208C258.585 0 274.437 15.8459 274.437 35.2225V239.208C274.437 258.585 258.585 274.437 239.208 274.437H35.2225C15.8459 274.437 0 258.585 0 239.208V35.2225C0 15.8459 15.8459 0 35.2225 0ZM199.912 30.4857C193.118 30.4857 187.557 36.0469 187.557 42.8407V72.415C187.557 79.2088 193.118 84.77 199.912 84.77H230.934C237.727 84.77 243.289 79.2093 243.289 72.415V42.8407C243.289 36.0469 237.728 30.4857 230.934 30.4857H199.912ZM243.416 116.053H219.262C221.546 123.517 222.779 131.416 222.779 139.604C222.779 185.252 184.588 222.257 137.473 222.257C90.3646 222.257 52.1737 185.252 52.1737 139.604C52.1737 131.417 53.4063 123.517 55.6915 116.053H30.4921V231.979C30.4921 237.982 35.3965 242.893 41.4003 242.893H232.508C238.505 242.893 243.416 237.982 243.416 231.979V116.053H243.416ZM137.474 83.2158C107.035 83.2158 82.3581 107.128 82.3581 136.623C82.3581 166.117 107.035 190.029 137.474 190.029C167.919 190.029 192.595 166.117 192.595 136.623C192.595 107.128 167.919 83.2158 137.474 83.2158Z" fill="currentColor" />
</svg>
