<svg width="currentWidth" height="currentHeight"  viewBox="0 0 30 30" fill="none" xmlns="http://www.w3.org/2000/svg">
<path d="M27.5151 0H2.69185C1.50474 0 0.541382 0.96875 0.541382 2.16167V27.8354C0.541382 29.03 1.50474 30 2.69185 30H27.5151C28.703 30 29.6728 29.03 29.6728 27.8354V2.16167C29.6728 0.96875 28.703 0 27.5151 0ZM9.18128 25.5642H4.8585V11.2479H9.18128V25.5642ZM7.01989 9.29042C5.63493 9.29042 4.5154 8.13458 4.5154 6.70958C4.5154 5.28667 5.63493 4.13083 7.01989 4.13083C8.40161 4.13083 9.52398 5.28667 9.52398 6.70958C9.52398 8.13458 8.40161 9.29042 7.01989 9.29042ZM25.3638 25.5642H21.0479V18.6025C21.0479 16.9417 21.0163 14.8062 18.8019 14.8062C16.5532 14.8062 16.2105 16.615 16.2105 18.4821V25.5646H11.8913V11.2479H16.0365V13.2029H16.0956C16.6725 12.0779 18.0822 10.8908 20.1845 10.8908C24.5566 10.8908 25.3642 13.855 25.3642 17.7113L25.3638 25.5642Z" fill="currentColor"/>
</svg>
