<svg width="currentWidth" height="currentHeight" viewBox="0 0 292 226" fill="none" xmlns="http://www.w3.org/2000/svg">
<path d="M247.354 18.9343C228.204 9.97517 207.946 3.60768 187.114 0C184.515 4.68613 181.493 11.0073 179.39 16.0146C157.263 12.6424 134.752 12.6424 112.624 16.0146C110.304 10.5429 107.697 5.19723 104.813 0C83.9631 3.61363 63.6892 9.99612 44.5295 18.9781C6.40868 76.5839 -3.92819 132.759 1.24024 188.131C23.4931 204.932 48.4949 217.74 75.1313 225.985C81.116 217.75 86.4096 209.034 90.9578 199.927C82.3069 196.63 73.9666 192.571 66.0354 187.796C68.1232 186.248 70.1672 184.628 72.1383 182.964C120.187 205.431 172.382 205.431 219.862 182.964C221.862 184.628 223.906 186.248 225.965 187.796C218.066 192.555 209.7 196.642 200.999 199.942C205.539 209.053 210.833 217.77 216.825 226C243.483 217.76 268.501 204.94 290.76 188.117C296.819 123.942 280.408 68.2774 247.354 18.9343ZM97.4986 154.073C83.0737 154.073 71.2477 140.613 71.2477 124.219C71.2477 107.825 82.8255 94.3358 97.4986 94.3358C112.172 94.3358 123.998 107.796 123.75 124.219C123.764 140.613 112.172 154.073 97.4986 154.073ZM194.502 154.073C180.077 154.073 168.251 140.613 168.251 124.219C168.251 107.825 179.828 94.3358 194.502 94.3358C209.175 94.3358 221.001 107.796 220.753 124.219C220.753 140.613 209.175 154.073 194.502 154.073Z" fill="currentColor"/>
</svg>
