<svg width="currentWidth" height="currentHeight"  viewBox="0 0 800 800" fill="none" xmlns="http://www.w3.org/2000/svg">
<g clip-path="url(#clip0_217_11801)">
<path d="M400.009 0C179.44 0 0 179.44 0 400.009C0 620.578 179.44 800.018 400.009 800.018C620.578 800.018 800 620.578 800 400.009C800 179.44 620.578 0 400.009 0ZM632.396 563.457C638.883 543.254 644.214 522.112 648.244 500.12C675.079 492.855 698.968 484.145 718.954 474.134C717.598 479.989 716.153 485.808 714.454 491.572C694.884 519.003 666.82 543.381 632.396 563.457ZM491.572 714.454C485.826 716.135 480.007 717.58 474.134 718.936C484.145 698.986 492.837 675.06 500.12 648.244C522.112 644.214 543.254 638.883 563.439 632.396C543.381 666.802 519.003 694.866 491.572 714.454ZM236.561 632.396C256.782 638.883 277.925 644.214 299.898 648.244C307.181 675.06 315.873 698.968 325.884 718.936C320.011 717.58 314.192 716.135 308.446 714.454C281.015 694.866 256.638 666.802 236.561 632.396ZM85.5639 491.536C83.8834 485.808 82.4377 479.989 81.0644 474.098C101.032 484.127 124.94 492.801 151.774 500.084C155.804 522.057 161.135 543.2 167.622 563.421C133.18 543.344 105.134 519.003 85.5639 491.536ZM167.604 236.543C161.117 256.764 155.804 277.907 151.774 299.862C124.94 307.163 101.05 315.837 81.0644 325.848C82.4377 319.993 83.8834 314.174 85.5639 308.428C105.134 280.997 133.18 256.619 167.604 236.543ZM308.446 85.5458C314.192 83.8653 320.011 82.4196 325.884 81.0463C315.873 101.014 307.181 124.922 299.898 151.756C277.925 155.786 256.782 161.117 236.561 167.604C256.619 133.18 281.015 105.116 308.446 85.5458ZM563.475 167.604C543.254 161.117 522.112 155.804 500.12 151.756C492.855 124.922 484.145 101.014 474.134 81.0463C480.007 82.4016 485.808 83.8653 491.572 85.5278C519.003 105.116 543.381 133.18 563.475 167.604ZM714.454 308.446C716.153 314.174 717.598 320.011 718.954 325.866C699.004 315.855 675.079 307.181 648.244 299.88C644.214 277.907 638.883 256.764 632.414 236.561C666.82 256.619 694.884 280.997 714.454 308.446ZM400.009 727.718C390.757 727.718 381.649 727.085 372.578 726.308C361.013 710.858 349.484 686.607 339.382 653.954C359.188 656.104 379.318 657.496 400.009 657.496C420.7 657.496 440.812 656.068 460.636 653.954C450.516 686.607 439.023 710.84 427.44 726.308C418.369 727.085 409.261 727.718 400.009 727.718ZM400.009 621.391C375.849 621.391 352.267 619.765 329.498 616.729C323.264 590.075 318.023 559.662 314.192 525.798C342.4 527.822 371.223 528.852 400.009 528.852C428.795 528.852 457.618 527.822 485.826 525.798C482.013 559.662 476.755 590.093 470.52 616.729C447.751 619.765 424.169 621.391 400.009 621.391ZM400.009 492.711C368.313 492.711 338.66 491.41 310.741 489.295C308.59 461.377 307.307 431.705 307.307 400.027C307.307 368.349 308.608 338.678 310.741 310.759C338.66 308.608 368.313 307.325 400.009 307.325C431.705 307.325 461.358 308.626 489.277 310.759C491.428 338.678 492.693 368.331 492.693 400.027C492.693 431.723 491.41 461.395 489.277 489.295C461.358 491.392 431.705 492.711 400.009 492.711ZM72.2821 399.991C72.2821 390.739 72.9146 381.631 73.6735 372.56C89.1238 360.995 113.393 349.466 146.028 339.364C143.877 359.17 142.468 379.3 142.468 399.991C142.468 420.682 143.896 440.83 146.028 460.618C113.374 450.498 89.1238 438.987 73.6735 427.404C72.9146 418.369 72.2821 409.261 72.2821 399.991ZM178.627 399.991C178.627 375.831 180.253 352.249 183.289 329.48C209.943 323.245 240.356 318.005 274.22 314.174C272.196 342.382 271.166 371.205 271.166 399.991C271.166 428.795 272.196 457.6 274.22 485.808C240.338 481.977 209.943 476.736 183.289 470.502C180.235 447.733 178.627 424.151 178.627 399.991ZM400.009 72.2821C409.261 72.2821 418.369 72.9146 427.44 73.6735C439.023 89.1238 450.516 113.393 460.636 146.046C440.848 143.896 420.7 142.486 400.009 142.486C379.318 142.486 359.17 143.914 339.382 146.046C349.484 113.393 361.013 89.1419 372.578 73.6735C381.649 72.9146 390.757 72.2821 400.009 72.2821ZM400.009 178.609C424.169 178.609 447.751 180.235 470.52 183.271C476.755 209.925 482.013 240.338 485.826 274.202C457.618 272.178 428.795 271.148 400.009 271.148C371.223 271.148 342.4 272.178 314.192 274.202C318.023 240.338 323.264 209.925 329.498 183.271C352.267 180.235 375.849 178.609 400.009 178.609ZM525.816 314.174C559.662 318.005 590.093 323.245 616.729 329.48C619.765 352.249 621.391 375.831 621.391 399.991C621.391 424.151 619.765 447.751 616.729 470.502C590.075 476.736 559.662 481.977 525.816 485.808C527.822 457.582 528.852 428.795 528.852 399.991C528.852 371.205 527.822 342.382 525.816 314.174ZM653.972 339.364C686.626 349.466 710.876 360.995 726.327 372.56C727.085 381.631 727.718 390.739 727.718 399.991C727.718 409.243 727.085 418.351 726.327 427.422C710.894 439.005 686.607 450.516 653.972 460.636C656.104 440.83 657.514 420.682 657.514 400.009C657.532 379.318 656.123 359.17 653.972 339.364ZM609.916 290.791C582.521 285.135 553.139 280.635 522.563 277.419C519.347 246.861 514.865 217.461 509.191 190.084C536.586 195.939 562.373 203.926 586.244 213.738C596.056 237.627 604.061 263.432 609.916 290.791ZM290.809 190.102C285.153 217.479 280.653 246.861 277.437 277.437C246.861 280.653 217.479 285.135 190.102 290.809C195.957 263.432 203.944 237.645 213.756 213.774C237.627 203.944 263.432 195.957 290.809 190.102ZM190.12 509.191C217.497 514.829 246.879 519.347 277.455 522.563C280.671 553.121 285.153 582.521 290.827 609.898C263.45 604.043 237.645 596.038 213.792 586.226C203.944 562.373 195.957 536.568 190.12 509.191ZM509.227 609.898C514.865 582.521 519.383 553.121 522.599 522.563C553.139 519.347 582.539 514.865 609.916 509.191C604.061 536.586 596.074 562.373 586.244 586.244C562.391 596.038 536.586 604.043 509.227 609.898ZM674.32 221.237C655.87 208.353 635.558 196.643 613.476 186.56C603.375 164.46 591.683 144.185 578.799 125.699C616.873 150.6 649.418 183.145 674.32 221.237ZM221.219 125.699C208.335 144.185 196.625 164.478 186.542 186.56C164.442 196.643 144.185 208.353 125.699 221.237C150.6 183.145 183.163 150.6 221.219 125.699ZM125.699 578.781C144.185 591.665 164.46 603.357 186.542 613.44C196.625 635.558 208.335 655.815 221.219 674.283C183.163 649.418 150.6 616.855 125.699 578.781ZM578.781 674.32C591.665 655.833 603.375 635.54 613.458 613.44C635.576 603.357 655.833 591.665 674.32 578.781C649.418 616.855 616.873 649.418 578.781 674.32Z" fill="currentColor"/>
</g>
<defs>
<clipPath id="clip0_217_11801">
<rect width="800" height="800" fill="white"/>
</clipPath>
</defs>
</svg>
