<svg width="currentWidth" height="currentHeight" viewBox="0 0 17 29" fill="none" xmlns="http://www.w3.org/2000/svg">
<g clip-path="url(#clip0_213_5)">
<path d="M8.5 2C7.02794 2 5.57823 2.50124 4.41791 3.41139C3.30588 4.28366 2.53335 5.46071 2.24263 6.72571L2.24095 6.73302L2.23921 6.74031C2.0693 7.45503 2 7.96485 2 8.5C2 9.36035 2.05854 19.3607 2.11028 20.6911C2.46104 22.2346 3.2489 23.5567 4.39427 24.5212C5.55388 25.4976 6.97362 26.0137 8.5 26.0137C10.037 26.0137 11.5365 25.4717 12.7225 24.4874C13.8554 23.5472 14.6075 22.2949 14.843 20.9578C14.9454 19.8739 15 10.2763 15 8.5C15 7.8409 14.9068 7.29986 14.8617 7.1411L14.8574 7.12598L14.8534 7.1108C14.448 5.59401 13.6253 4.30623 12.4742 3.38667C11.3387 2.4795 9.96439 2 8.5 2ZM8.5 0C12.4292 0 15.7357 2.66602 16.7856 6.59442C16.8989 6.99317 17 7.73477 17 8.5C17 8.99291 16.958 20.4897 16.8202 21.261C16.191 24.9653 12.7015 28.0137 8.5 28.0137C4.4112 28.0137 0.996691 25.1267 0.12488 20.9735C0.0633392 20.7101 0 9.10561 0 8.5C0 7.83808 0.0756607 7.19384 0.29344 6.27775C1.09084 2.80806 4.46749 0 8.5 0Z" fill="currentColor"/>
<path d="M8.5 5.5V10.5" stroke="currentColor" stroke-width="3" stroke-linecap="round"/>
</g>
</svg>
